<mxfile host="app.diagrams.net" modified="2023-10-01T09:59:07.529Z" agent="Mozilla/5.0 (Windows NT 10.0; Win64; x64) AppleWebKit/537.36 (KHTML, like Gecko) Chrome/118.0.0.0 Safari/537.36 Edg/118.0.2088.17" etag="rBQT3zlyzDJ51os4hW20" version="21.8.2" type="github">
  <diagram name="Page-1" id="0OzmcFVswwQeEpnuKePs">
    <mxGraphModel dx="1002" dy="527" grid="1" gridSize="10" guides="1" tooltips="1" connect="1" arrows="1" fold="1" page="1" pageScale="1" pageWidth="1100" pageHeight="850" math="0" shadow="0">
      <root>
        <mxCell id="0" />
        <mxCell id="1" parent="0" />
        <mxCell id="8_8a8QRlG6PUqAjMCD5C-7" style="edgeStyle=orthogonalEdgeStyle;rounded=0;orthogonalLoop=1;jettySize=auto;html=1;exitX=0.5;exitY=0;exitDx=0;exitDy=0;" edge="1" parent="1" source="8_8a8QRlG6PUqAjMCD5C-1">
          <mxGeometry relative="1" as="geometry">
            <mxPoint x="465" y="170" as="targetPoint" />
          </mxGeometry>
        </mxCell>
        <mxCell id="8_8a8QRlG6PUqAjMCD5C-8" style="edgeStyle=orthogonalEdgeStyle;rounded=0;orthogonalLoop=1;jettySize=auto;html=1;exitX=1;exitY=0.5;exitDx=0;exitDy=0;" edge="1" parent="1" source="8_8a8QRlG6PUqAjMCD5C-1">
          <mxGeometry relative="1" as="geometry">
            <mxPoint x="610" y="295" as="targetPoint" />
          </mxGeometry>
        </mxCell>
        <mxCell id="8_8a8QRlG6PUqAjMCD5C-11" style="edgeStyle=orthogonalEdgeStyle;rounded=0;orthogonalLoop=1;jettySize=auto;html=1;exitX=0.5;exitY=1;exitDx=0;exitDy=0;" edge="1" parent="1" source="8_8a8QRlG6PUqAjMCD5C-1">
          <mxGeometry relative="1" as="geometry">
            <mxPoint x="465" y="400" as="targetPoint" />
          </mxGeometry>
        </mxCell>
        <mxCell id="8_8a8QRlG6PUqAjMCD5C-1" value="Menu" style="ellipse;whiteSpace=wrap;html=1;" vertex="1" parent="1">
          <mxGeometry x="420" y="260" width="90" height="70" as="geometry" />
        </mxCell>
        <mxCell id="8_8a8QRlG6PUqAjMCD5C-9" value="" style="endArrow=classic;html=1;rounded=0;exitX=1;exitY=0;exitDx=0;exitDy=0;" edge="1" parent="1" source="8_8a8QRlG6PUqAjMCD5C-1">
          <mxGeometry width="50" height="50" relative="1" as="geometry">
            <mxPoint x="490" y="300" as="sourcePoint" />
            <mxPoint x="560" y="210" as="targetPoint" />
            <Array as="points" />
          </mxGeometry>
        </mxCell>
        <mxCell id="8_8a8QRlG6PUqAjMCD5C-10" value="" style="endArrow=classic;html=1;rounded=0;exitX=1;exitY=1;exitDx=0;exitDy=0;" edge="1" parent="1" source="8_8a8QRlG6PUqAjMCD5C-1">
          <mxGeometry width="50" height="50" relative="1" as="geometry">
            <mxPoint x="507" y="280" as="sourcePoint" />
            <mxPoint x="560" y="370" as="targetPoint" />
            <Array as="points" />
          </mxGeometry>
        </mxCell>
        <mxCell id="8_8a8QRlG6PUqAjMCD5C-13" style="edgeStyle=orthogonalEdgeStyle;rounded=0;orthogonalLoop=1;jettySize=auto;html=1;entryX=0;entryY=0.5;entryDx=0;entryDy=0;" edge="1" parent="1" source="8_8a8QRlG6PUqAjMCD5C-12" target="8_8a8QRlG6PUqAjMCD5C-1">
          <mxGeometry relative="1" as="geometry" />
        </mxCell>
        <mxCell id="8_8a8QRlG6PUqAjMCD5C-12" value="Home" style="ellipse;whiteSpace=wrap;html=1;" vertex="1" parent="1">
          <mxGeometry x="220" y="260" width="100" height="70" as="geometry" />
        </mxCell>
        <mxCell id="8_8a8QRlG6PUqAjMCD5C-20" value="" style="edgeStyle=orthogonalEdgeStyle;rounded=0;orthogonalLoop=1;jettySize=auto;html=1;" edge="1" parent="1" source="8_8a8QRlG6PUqAjMCD5C-14" target="8_8a8QRlG6PUqAjMCD5C-19">
          <mxGeometry relative="1" as="geometry" />
        </mxCell>
        <mxCell id="8_8a8QRlG6PUqAjMCD5C-14" value="Advocate" style="rounded=0;whiteSpace=wrap;html=1;" vertex="1" parent="1">
          <mxGeometry x="405" y="50" width="120" height="60" as="geometry" />
        </mxCell>
        <mxCell id="8_8a8QRlG6PUqAjMCD5C-15" value="Aribators" style="rounded=0;whiteSpace=wrap;html=1;" vertex="1" parent="1">
          <mxGeometry x="560" y="160" width="120" height="60" as="geometry" />
        </mxCell>
        <mxCell id="8_8a8QRlG6PUqAjMCD5C-16" value="Mediator" style="rounded=0;whiteSpace=wrap;html=1;" vertex="1" parent="1">
          <mxGeometry x="610" y="270" width="120" height="60" as="geometry" />
        </mxCell>
        <mxCell id="8_8a8QRlG6PUqAjMCD5C-17" value="Norties" style="rounded=0;whiteSpace=wrap;html=1;" vertex="1" parent="1">
          <mxGeometry x="560" y="370" width="120" height="60" as="geometry" />
        </mxCell>
        <mxCell id="8_8a8QRlG6PUqAjMCD5C-18" value="Document writers" style="rounded=0;whiteSpace=wrap;html=1;" vertex="1" parent="1">
          <mxGeometry x="405" y="400" width="120" height="60" as="geometry" />
        </mxCell>
        <mxCell id="8_8a8QRlG6PUqAjMCD5C-19" value="Auction" style="whiteSpace=wrap;html=1;rounded=0;" vertex="1" parent="1">
          <mxGeometry x="200" y="90" width="120" height="60" as="geometry" />
        </mxCell>
        <mxCell id="8_8a8QRlG6PUqAjMCD5C-21" value="" style="endArrow=classic;html=1;rounded=0;exitX=1.002;exitY=0.367;exitDx=0;exitDy=0;entryX=0;entryY=0.5;entryDx=0;entryDy=0;exitPerimeter=0;" edge="1" parent="1" source="8_8a8QRlG6PUqAjMCD5C-14" target="8_8a8QRlG6PUqAjMCD5C-22">
          <mxGeometry width="50" height="50" relative="1" as="geometry">
            <mxPoint x="507" y="280" as="sourcePoint" />
            <mxPoint x="620" y="40" as="targetPoint" />
            <Array as="points" />
          </mxGeometry>
        </mxCell>
        <mxCell id="8_8a8QRlG6PUqAjMCD5C-22" value="Direct" style="rounded=0;whiteSpace=wrap;html=1;" vertex="1" parent="1">
          <mxGeometry x="600" y="40" width="120" height="60" as="geometry" />
        </mxCell>
        <mxCell id="8_8a8QRlG6PUqAjMCD5C-26" value="" style="edgeStyle=orthogonalEdgeStyle;rounded=0;orthogonalLoop=1;jettySize=auto;html=1;" edge="1" parent="1" source="8_8a8QRlG6PUqAjMCD5C-25" target="8_8a8QRlG6PUqAjMCD5C-14">
          <mxGeometry relative="1" as="geometry" />
        </mxCell>
        <mxCell id="8_8a8QRlG6PUqAjMCD5C-25" value="Catogary by cities" style="rounded=0;whiteSpace=wrap;html=1;" vertex="1" parent="1">
          <mxGeometry x="405" y="160" width="120" height="60" as="geometry" />
        </mxCell>
      </root>
    </mxGraphModel>
  </diagram>
</mxfile>
